<svg width="16" height="16" viewBox="0 0 16 16" fill="none" xmlns="http://www.w3.org/2000/svg">
<path d="M12.9173 8.27722L5.85125 12.9879C5.80106 13.0213 5.74274 13.0404 5.68251 13.0433C5.62229 13.0462 5.56241 13.0327 5.50925 13.0042C5.4561 12.9758 5.41165 12.9334 5.38066 12.8817C5.34967 12.83 5.33328 12.7708 5.33325 12.7105V3.28922C5.33328 3.22892 5.34967 3.16976 5.38066 3.11804C5.41165 3.06633 5.4561 3.02398 5.50925 2.99552C5.56241 2.96706 5.62229 2.95355 5.68251 2.95644C5.74274 2.95932 5.80106 2.97848 5.85125 3.01188L12.9173 7.72255C12.9629 7.75299 13.0003 7.79423 13.0262 7.84261C13.0521 7.89099 13.0657 7.94501 13.0657 7.99988C13.0657 8.05475 13.0521 8.10878 13.0262 8.15715C13.0003 8.20553 12.9629 8.24678 12.9173 8.27722Z" fill="white"/>
</svg>
